<svg xmlns="http://www.w3.org/2000/svg" width="760" height="460" font-family="system-ui,sans-serif"><rect width="760" height="460" fill="white"/><text x="64" y="26" font-size="16" font-weight="600" fill="#111">Worst-participant collateral saving vs n (reciprocity 0.8, density 0.5)</text><line x1="64" y1="404" x2="600" y2="404" stroke="#e5e7eb"/><text x="56" y="408" font-size="11" fill="#6b7280" text-anchor="end">0%</text><line x1="64" y1="332.8" x2="600" y2="332.8" stroke="#e5e7eb"/><text x="56" y="336.8" font-size="11" fill="#6b7280" text-anchor="end">20%</text><line x1="64" y1="261.6" x2="600" y2="261.6" stroke="#e5e7eb"/><text x="56" y="265.6" font-size="11" fill="#6b7280" text-anchor="end">40%</text><line x1="64" y1="190.4" x2="600" y2="190.4" stroke="#e5e7eb"/><text x="56" y="194.4" font-size="11" fill="#6b7280" text-anchor="end">60%</text><line x1="64" y1="119.19999999999999" x2="600" y2="119.19999999999999" stroke="#e5e7eb"/><text x="56" y="123.19999999999999" font-size="11" fill="#6b7280" text-anchor="end">80%</text><line x1="64" y1="48" x2="600" y2="48" stroke="#e5e7eb"/><text x="56" y="52" font-size="11" fill="#6b7280" text-anchor="end">100%</text><text x="64" y="422" font-size="11" fill="#6b7280" text-anchor="middle">2</text><text x="75.16666666666667" y="422" font-size="11" fill="#6b7280" text-anchor="middle">3</text><text x="86.33333333333333" y="422" font-size="11" fill="#6b7280" text-anchor="middle">4</text><text x="97.5" y="422" font-size="11" fill="#6b7280" text-anchor="middle">5</text><text x="131" y="422" font-size="11" fill="#6b7280" text-anchor="middle">8</text><text x="153.33333333333331" y="422" font-size="11" fill="#6b7280" text-anchor="middle">10</text><text x="209.16666666666666" y="422" font-size="11" fill="#6b7280" text-anchor="middle">15</text><text x="265" y="422" font-size="11" fill="#6b7280" text-anchor="middle">20</text><text x="376.6666666666667" y="422" font-size="11" fill="#6b7280" text-anchor="middle">30</text><text x="600" y="422" font-size="11" fill="#6b7280" text-anchor="middle">50</text><text x="332" y="446" font-size="12" fill="#374151" text-anchor="middle">participants (n)</text><text x="18" y="226" font-size="12" fill="#374151" text-anchor="middle" transform="rotate(-90 18 226)">collateral saving</text><polyline points="64,297.0666663395281 75.16666666666667,274.4750589011676 86.33333333333333,283.1199604009678 97.5,270.7458100575849 131,254.1498501577678 153.33333333333331,249.10180102740355 209.16666666666666,233.7579977074755 265,219.7699561786032 376.6666666666667,200.1788998680788 600,179.69877429743488" fill="none" stroke="#2563eb" stroke-width="2"/><line x1="612" y1="58" x2="634" y2="58" stroke="#2563eb" stroke-width="2"/><text x="640" y="62" font-size="11" fill="#374151">median</text><polyline points="64,404 75.16666666666667,404 86.33333333333333,394.7607957595845 97.5,404 131,373.91537300163264 153.33333333333331,343.80271099379047 209.16666666666666,288.35720687829496 265,267.72859258297626 376.6666666666667,246.89057357084263 600,215.0153142646461" fill="none" stroke="#dc2626" stroke-width="2" stroke-dasharray="5 4"/><line x1="612" y1="76" x2="634" y2="76" stroke="#dc2626" stroke-width="2" stroke-dasharray="5 4"/><text x="640" y="80" font-size="11" fill="#374151">p10 (budget case)</text><polyline points="64,239.53456182505835 75.16666666666667,169.65848874694694 86.33333333333333,156.94268174258684 97.5,142.7160617853724 131,121.75893584157075 153.33333333333331,112.24706765991071 209.16666666666666,100.6041085035953 265,91.98880102465364 376.6666666666667,84.96965887242001 600,76.26789581298335" fill="none" stroke="#059669" stroke-width="2"/><line x1="612" y1="94" x2="634" y2="94" stroke="#059669" stroke-width="2"/><text x="640" y="98" font-size="11" fill="#374151">volume (median)</text></svg>