<svg xmlns="http://www.w3.org/2000/svg" width="760" height="460" font-family="system-ui,sans-serif"><rect width="760" height="460" fill="white"/><text x="64" y="26" font-size="16" font-weight="600" fill="#111">Volume compression vs reciprocity (density 0.5, median of 200 seeds)</text><line x1="64" y1="404" x2="600" y2="404" stroke="#e5e7eb"/><text x="56" y="408" font-size="11" fill="#6b7280" text-anchor="end">0%</text><line x1="64" y1="332.8" x2="600" y2="332.8" stroke="#e5e7eb"/><text x="56" y="336.8" font-size="11" fill="#6b7280" text-anchor="end">20%</text><line x1="64" y1="261.6" x2="600" y2="261.6" stroke="#e5e7eb"/><text x="56" y="265.6" font-size="11" fill="#6b7280" text-anchor="end">40%</text><line x1="64" y1="190.4" x2="600" y2="190.4" stroke="#e5e7eb"/><text x="56" y="194.4" font-size="11" fill="#6b7280" text-anchor="end">60%</text><line x1="64" y1="119.19999999999999" x2="600" y2="119.19999999999999" stroke="#e5e7eb"/><text x="56" y="123.19999999999999" font-size="11" fill="#6b7280" text-anchor="end">80%</text><line x1="64" y1="48" x2="600" y2="48" stroke="#e5e7eb"/><text x="56" y="52" font-size="11" fill="#6b7280" text-anchor="end">100%</text><text x="64" y="422" font-size="11" fill="#6b7280" text-anchor="middle">0</text><text x="117.6" y="422" font-size="11" fill="#6b7280" text-anchor="middle">0.1</text><text x="171.2" y="422" font-size="11" fill="#6b7280" text-anchor="middle">0.2</text><text x="224.79999999999998" y="422" font-size="11" fill="#6b7280" text-anchor="middle">0.3</text><text x="278.4" y="422" font-size="11" fill="#6b7280" text-anchor="middle">0.4</text><text x="332" y="422" font-size="11" fill="#6b7280" text-anchor="middle">0.5</text><text x="385.59999999999997" y="422" font-size="11" fill="#6b7280" text-anchor="middle">0.6</text><text x="439.2" y="422" font-size="11" fill="#6b7280" text-anchor="middle">0.7</text><text x="492.8" y="422" font-size="11" fill="#6b7280" text-anchor="middle">0.8</text><text x="546.4000000000001" y="422" font-size="11" fill="#6b7280" text-anchor="middle">0.9</text><text x="600" y="422" font-size="11" fill="#6b7280" text-anchor="middle">1</text><text x="332" y="446" font-size="12" fill="#374151" text-anchor="middle">reciprocity — probability a flow has a counter-flow</text><text x="18" y="226" font-size="12" fill="#374151" text-anchor="middle" transform="rotate(-90 18 226)">volume compression</text><polyline points="64,404 117.6,404 171.2,352.54681040228763 224.79999999999998,298.6446384504701 278.4,245.79744664064313 332,224.13673536146547 385.59999999999997,212.53004890617586 439.2,175.09639423357953 492.8,169.65848874694694 546.4000000000001,160.61561656787987 600,146.21304163049797" fill="none" stroke="#2563eb" stroke-width="2"/><line x1="612" y1="58" x2="634" y2="58" stroke="#2563eb" stroke-width="2"/><text x="640" y="62" font-size="11" fill="#374151">n=3</text><polyline points="64,280.03284386264465 117.6,258.84141984378624 171.2,242.0658612483692 224.79999999999998,211.8780859410716 278.4,196.081213382698 332,170.0901350385704 385.59999999999997,168.53806867501171 439.2,151.61737518207605 492.8,142.7160617853724 546.4000000000001,130.8620670748263 600,119.67497296353496" fill="none" stroke="#059669" stroke-width="2"/><line x1="612" y1="76" x2="634" y2="76" stroke="#059669" stroke-width="2"/><text x="640" y="80" font-size="11" fill="#374151">n=5</text><polyline points="64,202.37948366034163 117.6,188.20294935704666 171.2,165.3639118042048 224.79999999999998,155.85675235297924 278.4,142.5066257549321 332,137.65483243277606 385.59999999999997,128.26710471818816 439.2,118.89870704072185 492.8,112.24706765991071 546.4000000000001,106.58384047759591 600,99.22661973910421" fill="none" stroke="#d97706" stroke-width="2"/><line x1="612" y1="94" x2="634" y2="94" stroke="#d97706" stroke-width="2"/><text x="640" y="98" font-size="11" fill="#374151">n=10</text><polyline points="64,153.69440144587196 117.6,142.44204944753142 171.2,129.98654335560178 224.79999999999998,122.52590572943642 278.4,114.97417364138792 332,108.56608185288322 385.59999999999997,103.25085223241534 439.2,96.64061467725983 492.8,91.98880102465364 546.4000000000001,87.9688153707325 600,84.09999795528206" fill="none" stroke="#dc2626" stroke-width="2"/><line x1="612" y1="112" x2="634" y2="112" stroke="#dc2626" stroke-width="2"/><text x="640" y="116" font-size="11" fill="#374151">n=20</text><polyline points="64,112.96828640791934 117.6,106.32523256200729 171.2,99.9573870388362 224.79999999999998,93.92709348109832 278.4,90.34608311117933 332,85.92577294112985 385.59999999999997,82.36399842520275 439.2,79.43689306406608 492.8,76.26789581298335 546.4000000000001,74.04412911834606 600,71.46353924167255" fill="none" stroke="#7c3aed" stroke-width="2"/><line x1="612" y1="130" x2="634" y2="130" stroke="#7c3aed" stroke-width="2"/><text x="640" y="134" font-size="11" fill="#374151">n=50</text><polyline points="64,255.344766563025 117.6,234.6651610820064 171.2,222.27369011319962 224.79999999999998,199.3343174011893 278.4,180.3781002470286 332,170.2501252346571 385.59999999999997,160.69198419069292 439.2,144.47918985355398 492.8,137.6262546371961 546.4000000000001,133.91526153428362 600,121.0811654238772" fill="none" stroke="#d97706" stroke-width="2" stroke-dasharray="5 4"/><line x1="612" y1="148" x2="634" y2="148" stroke="#d97706" stroke-width="2" stroke-dasharray="5 4"/><text x="640" y="152" font-size="11" fill="#374151">n=10 (p10)</text></svg>